# xmcd CD Database Entry
#
# Track frame offsets:
# 182
# 11837
# 23542
# 34035
# 44997
# 56597
# 66782
# 77422
# 88345
# 99557
# 110610
# 121695
# 135485
# 148487
# 159122
# 170180
# 180530
# 191795
#
# Disc length: 2698 seconds
#
# Revision: 1
# Processed by: cddbd v1.5PL3 Copyright (c) Steve Scherf et al.
# Submitted via: tcd 2.0b
#
DISCID=fa0a8812
DTITLE=Patsy Cline - Crazy Dreams
DYEAR=1900
DGENRE=
TTITLE0=Walking After Midnight
TTITLE1=A Poor Man's Roses or A Rich Man's gold
TTITLE2=Lovesick Blues
TTITLE3=There He Goes
TTITLE4=Crazy Dreams
TTITLE5=Three Cigarettes In An Ashtray
TTITLE6=Stop, Look and Listen
TTITLE7=I Cried All The Way To The Altar
TTITLE8=Hungry For Love
TTITLE9=Stop The World (And Let Me Get Off)
TTITLE10=Hidin' Out
TTITLE11=A Church, A Courtroom and Then Goodbye
TTITLE12=Life's Railway to Heaven
TTITLE13=I Don't Wanta
TTITLE14=A Stranger In My Arms
TTITLE15=Pick Me Up On Your Way Down
TTITLE16=I Go To Church On Sunday
TTITLE17=Honky Tonk Merry Go Round
EXTD=
EXTT0=
EXTT1=
EXTT2=
EXTT3=
EXTT4=
EXTT5=
EXTT6=
EXTT7=
EXTT8=
EXTT9=
EXTT10=
EXTT11=
EXTT12=
EXTT13=
EXTT14=
EXTT15=
EXTT16=
EXTT17=
PLAYORDER=
